<?xml version="1.0" encoding="utf-8"?>
<!-- Generator: Adobe Illustrator 26.0.1, SVG Export Plug-In . SVG Version: 6.00 Build 0)  -->
<svg version="1.1" id="Layer_1" xmlns="http://www.w3.org/2000/svg" xmlns:xlink="http://www.w3.org/1999/xlink" x="0px" y="0px"
	 viewBox="0 0 200 100" style="enable-background:new 0 0 200 100;" xml:space="preserve">
<style type="text/css">
	.st0{fill-rule:evenodd;clip-rule:evenodd;fill:#2C6269;}
	.st1{fill-rule:evenodd;clip-rule:evenodd;fill:#014E56;}
	.st2{fill-rule:evenodd;clip-rule:evenodd;fill:#79C8C7;}
</style>
<g>
	<path class="st0" d="M100,0H0v-100h100V0z"/>
	<path class="st1" d="M100-100c55.2,0,100,44.8,100,100s-44.8,100-100,100S0,55.2,0,0S44.8-100,100-100z M100-33
		C81.8-33,67-18.2,67,0s14.8,33,33,33s33-14.8,33-33S118.2-33,100-33z"/>
	<path class="st2" d="M100,40v4H0v-4H100z M100,32v4H0v-4H100z M100,24v4H0v-4H100z M100,16v4H0v-4H100z M100,8v4H0V8H100z M100,0v4
		H0V0H100z M4-60v4H0v-4H4z M11-60v4H7v-4H11z M18-60v4h-4v-4H18z M25-60v4h-4v-4H25z M32-60v4h-4v-4H32z M39-60v4h-4v-4H39z M46-60
		v4h-4v-4H46z M53-60v4h-4v-4H53z M4-68v4H0v-4H4z M11-68v4H7v-4H11z M18-68v4h-4v-4H18z M25-68v4h-4v-4H25z M32-68v4h-4v-4H32z
		 M39-68v4h-4v-4H39z M46-68v4h-4v-4H46z M53-68v4h-4v-4H53z M4-76v4H0v-4H4z M11-76v4H7v-4H11z M18-76v4h-4v-4H18z M25-76v4h-4v-4
		H25z M32-76v4h-4v-4H32z M39-76v4h-4v-4H39z M46-76v4h-4v-4H46z M53-76v4h-4v-4H53z M18-84v4h-4v-4H18z M32-84v4h-4v-4H32z M25-84
		v4h-4v-4H25z M46-84v4h-4v-4H46z M39-84v4h-4v-4H39z M4-84v4H0v-4H4z M11-84v4H7v-4H11z M53-84v4h-4v-4H53z M4-92v4H0v-4H4z M11-92
		v4H7v-4H11z M18-92v4h-4v-4H18z M25-92v4h-4v-4H25z M32-92v4h-4v-4H32z M39-92v4h-4v-4H39z M46-92v4h-4v-4H46z M53-92v4h-4v-4H53z
		 M4-100v4H0v-4H4z M11-100v4H7v-4H11z M18-100v4h-4v-4H18z M25-100v4h-4v-4H25z M32-100v4h-4v-4H32z M39-100v4h-4v-4H39z M46-100v4
		h-4v-4H46z M53-100v4h-4v-4H53z"/>
</g>
</svg>
