<?xml version="1.0" encoding="utf-8"?>
<!-- Generator: Adobe Illustrator 26.0.1, SVG Export Plug-In . SVG Version: 6.00 Build 0)  -->
<svg version="1.1" id="Layer_1" xmlns="http://www.w3.org/2000/svg" xmlns:xlink="http://www.w3.org/1999/xlink" x="0px" y="0px"
	 viewBox="0 0 100 100" style="enable-background:new 0 0 100 100;" xml:space="preserve">
<style type="text/css">
	.st0{fill-rule:evenodd;clip-rule:evenodd;fill:#2C6269;}
	.st1{fill-rule:evenodd;clip-rule:evenodd;fill:#014E56;}
	.st2{fill-rule:evenodd;clip-rule:evenodd;fill:#79C8C7;}
</style>
<g>
	<path class="st0" d="M0,0h-100v-100H0V0z"/>
	<path class="st1" d="M0-100c55.2,0,100,44.8,100,100S55.2,100,0,100S-100,55.2-100,0S-55.2-100,0-100z M0-33c-18.2,0-33,14.8-33,33
		s14.8,33,33,33S33,18.2,33,0S18.2-33,0-33z"/>
	<path class="st2" d="M0,40v4h-100v-4H0z M0,32v4h-100v-4H0z M0,24v4h-100v-4H0z M0,16v4h-100v-4H0z M0,8v4h-100V8H0z M0,0v4h-100V0
		H0z M-96-60v4h-4v-4H-96z M-89-60v4h-4v-4H-89z M-82-60v4h-4v-4H-82z M-75-60v4h-4v-4H-75z M-68-60v4h-4v-4H-68z M-61-60v4h-4v-4
		H-61z M-54-60v4h-4v-4H-54z M-47-60v4h-4v-4H-47z M-96-68v4h-4v-4H-96z M-89-68v4h-4v-4H-89z M-82-68v4h-4v-4H-82z M-75-68v4h-4v-4
		H-75z M-68-68v4h-4v-4H-68z M-61-68v4h-4v-4H-61z M-54-68v4h-4v-4H-54z M-47-68v4h-4v-4H-47z M-96-76v4h-4v-4H-96z M-89-76v4h-4v-4
		H-89z M-82-76v4h-4v-4H-82z M-75-76v4h-4v-4H-75z M-68-76v4h-4v-4H-68z M-61-76v4h-4v-4H-61z M-54-76v4h-4v-4H-54z M-47-76v4h-4v-4
		H-47z M-82-84v4h-4v-4H-82z M-68-84v4h-4v-4H-68z M-75-84v4h-4v-4H-75z M-54-84v4h-4v-4H-54z M-61-84v4h-4v-4H-61z M-96-84v4h-4v-4
		H-96z M-89-84v4h-4v-4H-89z M-47-84v4h-4v-4H-47z M-96-92v4h-4v-4H-96z M-89-92v4h-4v-4H-89z M-82-92v4h-4v-4H-82z M-75-92v4h-4v-4
		H-75z M-68-92v4h-4v-4H-68z M-61-92v4h-4v-4H-61z M-54-92v4h-4v-4H-54z M-47-92v4h-4v-4H-47z M-96-100v4h-4v-4H-96z M-89-100v4h-4
		v-4H-89z M-82-100v4h-4v-4H-82z M-75-100v4h-4v-4H-75z M-68-100v4h-4v-4H-68z M-61-100v4h-4v-4H-61z M-54-100v4h-4v-4H-54z
		 M-47-100v4h-4v-4H-47z"/>
</g>
</svg>
